{"title":"Carnage 2011 CAM XviD - VISUALiSE","uid":6824276,"size":920855429,"categoryP":"video","categoryS":"movies","magnet":"?xt=urn:btih:8c52e59a88494c3922b09bed06a2445461ed01f0&amp;dn=Carnage+2011+CAM+XviD+-+VISUALiSE&amp;tr=udp%3A%2F%2Ftracker.openbittorrent.com%3A80&amp;tr=udp%3A%2F%2Fopen.demonii.com%3A1337&amp;tr=udp%3A%2F%2Ftracker.coppersurfer.tk%3A6969&amp;tr=udp%3A%2F%2Fexodus.desync.com%3A6969","seeders":1,"leechers":0,"uploader":"LegendET","files":3,"time":1321514784,"description":"\n[img]http://i.imgur.com/OZTkp.jpg[/img]\n\n\n\nTitle: Carnage 2011 CAM XviD - VISUALiSE\nFormat: Xvid\nLanguage: English\nSubtitles: No\nImdb: http://www.imdb.com/title/tt1692486/\n\nPlot:\nTells the story of two sets of parents who decide \nto have a cordial meeting after their sons are \ninvolved in a schoolyard brawl. \n\nSources:\nVideo: TNZ Files - Many Thanks \nAudio: Evolution - Many Thanks \n\nRelease Notes:\nVISUALiSE Bringing you \nCarnage 2011 CAM XviD - VISUALiSE\nNot much to say here played with RGB \nadded contrast and little brightness\nran sum filters and mux audio back\nto encode...\n\nenjoy. \n\nInfo:\n\nVideo\nID                               : 0\nFormat                           : MPEG-4 Visual\nFormat profile                   : Advanced Simple@L5\nFormat settings, BVOP            : 2\nFormat settings, QPel            : No\nFormat settings, GMC             : No warppoints\nFormat settings, Matrix          : Default (H.263)\nCodec ID                         : XVID\nCodec ID/Hint                    : XviD\nDuration                         : 1h 15mn\nBit rate                         : 1 499 Kbps\nWidth                            : 720 pixels\nHeight                           : 304 pixels\nDisplay aspect ratio             : 2.35:1\nFrame rate                       : 25.000 fps\nColor space                      : YUV\nChroma subsampling               : 4:2:0\nBit depth                        : 8 bits\nScan type                        : Progressive\nCompression mode                 : Lossy\nBits/(Pixel*Frame)               : 0.274\nStream size                      : 807 MiB (92%)\n\nAudio\nID                               : 1\nFormat                           : MPEG Audio\nFormat version                   : Version 1\nFormat profile                   : Layer 3\nMode                             : Joint stereo\nMode extension                   : MS Stereo\nCodec ID                         : 55\nCodec ID/Hint                    : MP3\nDuration                         : 1h 15mn\nBit rate mode                    : Variable\nBit rate                         : 120 Kbps\nChannel(s)                       : 2 channels\nSampling rate                    : 48.0 KHz\nCompression mode                 : Lossy\nStream size                      : 64.5 MiB (7%)\nAlignment                        : Aligned on interleaves\nInterleave, duration             : 24 ms (0.60 video frame)\n\n\n[img]http://i.imgur.com/bhJkE.png[/img]\n[img]http://i.imgur.com/LQywT.png[/img]\n[img]http://i.imgur.com/BxXXW.png[/img]\n[img]http://i.imgur.com/4aHiS.png[/img]","torrent":{"xt":"urn:btih:8c52e59a88494c3922b09bed06a2445461ed01f0","amp;dn":"Carnage+2011+CAM+XviD+-+VISUALiSE","amp;tr":["udp%3A%2F%2Ftracker.openbittorrent.com%3A80","udp%3A%2F%2Fopen.demonii.com%3A1337","udp%3A%2F%2Ftracker.coppersurfer.tk%3A6969","udp%3A%2F%2Fexodus.desync.com%3A6969"],"infoHash":"8c52e59a88494c3922b09bed06a2445461ed01f0","infoHashBuffer":{"type":"Buffer","data":[140,82,229,154,136,73,76,57,34,176,155,237,6,162,68,84,97,237,1,240]},"announce":[],"urlList":[]}}